<?xml version="1.0" encoding="UTF-8"?>
<svg id="_圖層_1" data-name="圖層 1" xmlns="http://www.w3.org/2000/svg" viewBox="0 0 529.66 71.32">
  <defs>
    <style>
      .cls-1 {
        fill: none;
        stroke: #fff;
        stroke-miterlimit: 10;
        stroke-width: .5px;
      }

      .cls-2 {
        fill: #fff;
      }
    </style>
  </defs>
  <g>
    <path class="cls-2" d="M85.48,60.05c-.77.77-1.51,1.48-2.27,2.1-.48-.71-1.62-2.25-2.27-2.96,2.84-2.02,5.88-5.32,7.7-8.56,1.59.62,3.41,1.85,3.13,2.27-.34.54-.65.08-1.34,1.17-.51.71-1.02,1.45-1.59,2.16v11.23c0,1.28.06,2.81.17,3.72-.17.17-3.53.17-3.64,0,.06-.68.11-1.82.11-2.79v-8.36ZM87.58,44.44c1.62.68,3.41,1.99,3.07,2.39-.43.51-.68,0-1.54,1.02-.6.68-1.25,1.36-1.93,2.02-1.34,1.31-2.76,2.5-4.09,3.47-.43-.77-1.28-2.13-1.88-2.81,1.17-.77,2.42-1.79,3.55-2.87,1.14-1.08,2.16-2.22,2.81-3.21ZM103.44,67.21c0,1.82-.34,2.79-1.56,3.3-1.19.51-2.98.57-5.46.57-.14-1-.6-2.47-1.05-3.47,1.59.08,3.47.08,3.95.06.51,0,.68-.11.68-.54v-9.92h-4.12c-1.39,0-2.76.06-4.12.17-.11-.17-.11-3.41,0-3.58.97.11,2.56.17,3.87.17h7.76c1.34,0,2.62-.06,3.89-.17.11.17.11,3.41,0,3.5-.46-.06-1.25-.08-1.9-.08h-1.93v10.01ZM103.16,46.06c1.17,0,2.27-.06,3.38-.14.11.14.11,3.41,0,3.55-.82-.08-2.22-.14-3.38-.14h-6.82c-1.17,0-2.27.06-3.38.14-.11-.14-.11-3.41,0-3.55.82.08,2.22.14,3.38.14h6.82Z"/>
    <path class="cls-2" d="M121.15,66.1l3.78-.68.14,2.67c-3.53.8-7.25,1.62-10.06,2.25l-.62-3.07,4.06-.68v-7.13h-1.85c-.65,0-1.25.03-1.85.08-.11-.08-.11-2.98,0-3.07.46.06,1.19.09,1.85.09h1.85v-2.08h-2.1v-1.28c-.46.43-.91.85-1.34,1.22-.17-.77-.82-2.67-1.19-3.5,2.07-1.56,4.26-4.07,5.57-6.65l2.42,1.17-.54,1.02c1.79,1.08,3.53,2.33,4.55,3.33l-1.37,2.79-.71-.65v2.56h-2.59v2.08h1.82c.62,0,1.22-.03,1.82-.09.11.09.11,2.99,0,3.07-.46-.06-1.19-.08-1.82-.08h-1.82v6.65ZM118.03,65.36l-2.19.65c-.03-.68-.17-1.54-.31-2.42-.17-.85-.34-1.76-.54-2.56l1.99-.57c.26.77.45,1.68.65,2.53.17.88.31,1.71.4,2.36ZM119.82,48.9c-.63.94-1.34,1.88-2.05,2.73h5.69c-.51-.46-1.11-.94-1.73-1.39-.62-.48-1.25-.94-1.9-1.34ZM122.32,60.22c1.17.31,2.62.88,2.56,1.14-.08.34-.4.14-.57.77-.14.43-.26.88-.4,1.31-.23.82-.43,1.59-.65,2.19l-1.88-.6c.17-.65.37-1.51.54-2.36.17-.85.34-1.73.4-2.44ZM130.42,51.15l-2.62,1.19c-.23-.71-.6-1.65-1.02-2.64-.37-.97-.82-1.99-1.25-2.87l2.47-1c.43.85.91,1.85,1.34,2.79.46.94.85,1.85,1.08,2.53ZM126.27,53.19h4.78v-4.38c0-1.45-.09-3.27-.2-4.46,1.28-.06,4.12,0,4.12.4-.34.68-.68,1.36-.68,2.73v5.71h4.75v14.3c0,1.51-.29,2.39-1.25,2.93-.97.51-2.27.57-4.09.57-.17-.91-.65-2.27-1.11-3.13,1.08.06,2.3.06,2.67.06s.51-.11.51-.48v-2.13h-6.28v2.93c0,.99.06,2.22.14,2.93-.14.17-3.35.17-3.55,0,.11-1.11.2-2.96.2-4.49v-13.47ZM135.77,57.97v-1.85h-6.28v1.85h6.28ZM135.77,62.52v-1.96h-6.28v1.96h6.28ZM137.41,45.83c1.31.57,2.9,1.51,2.79,1.79-.17.4-.51.06-.82.8-.23.48-.46,1-.68,1.48-.48.94-.97,1.82-1.36,2.53l-2.42-1.02c.43-.74.91-1.71,1.34-2.7.46-.99.88-2.02,1.17-2.87Z"/>
    <path class="cls-2" d="M149.84,61.07l-2.59.94-.77-3.27,3.35-1.08v-4.69h-1.48c-.48,0-.97.03-1.45.08-.11-.08-.11-3.21,0-3.3.34.06.97.09,1.45.09h1.48v-2.7c0-.91-.06-2.02-.11-2.79,1.14-.06,3.87,0,3.87.4-.34.63-.68,1.25-.68,2.53v2.56h1.17c.43,0,.8-.03,1.17-.06.11.06.11,3.18,0,3.24-.28-.03-.74-.06-1.17-.06h-1.17v3.67l2.19-.77.6,3.01-2.79,1.05v7.62c0,1.56-.26,2.44-1.11,2.96-.85.54-2.08.65-3.87.65-.08-.82-.46-2.25-.88-3.16,1.02.06,2.02.06,2.33.03.34,0,.45-.11.45-.48v-6.48ZM167.78,59.53c1.22,0,2.45-.06,3.67-.17.11.17.11,3.24,0,3.38-.71-.08-1.93-.14-2.93-.14h-2.93v4.66h3.64c1.25,0,2.44-.06,3.64-.17.11.17.11,3.27,0,3.47-1.11-.11-2.96-.2-4.43-.2h-8.9c-1.48,0-2.96.08-4.43.2-.11-.2-.11-3.3,0-3.47.88.11,2.39.17,3.58.17h3.61v-4.66h-2.79c-.97,0-1.88.06-2.79.11-.11-.11-.11-3.18,0-3.35.91.11,2.44.17,3.67.17h7.39ZM162.38,46.91v-1.25c0-.43-.03-.94-.06-1.34,1.14-.06,3.78,0,3.78.4-.23.26-.46.54-.46,1.08v1.11h7.02v2.67c0,.91.06,2.02.11,2.67-.11.17-3.16.17-3.21,0,.03-.31.06-.8.06-1.25v-1.28h-1.85v4.69c0,.71.06.77.54.77h1.28c.48,0,.6-.28.68-2.22.57.46,1.79.94,2.64,1.11-.31,3.01-1.08,3.84-2.93,3.84h-2.19c-2.56,0-3.1-.88-3.1-3.5v-4.69h-1.59c-.17,4.8-1.02,7.5-6.2,8.9-.26-.71-1-1.85-1.59-2.42,4.15-1,4.66-2.81,4.78-6.48h-1.68v1.31c0,.46.03,1,.06,1.31-.06.17-2.96.17-3.07,0,.06-.65.11-1.76.11-2.7v-2.73h6.85Z"/>
    <path class="cls-2" d="M189.78,67.44l-.03.71c1.93-.57,3.67-1.45,5.2-2.56-1.31-1.48-2.42-3.18-3.33-5.06l2.73-.94h-1.76c-.6,0-1.17.03-1.73.09-.11-.09-.11-3.18,0-3.3.65.06,1.76.11,2.64.11h8.02l.54-.14,2.19.88c-.91,3.38-2.36,6.11-4.26,8.3,1.71,1.19,3.72,2.13,5.91,2.73-.74.68-1.76,2.08-2.25,2.96-2.33-.77-4.41-1.88-6.23-3.3-1.76,1.39-3.84,2.45-6.06,3.24-.34-.77-1.02-1.9-1.65-2.67-.08.97-.4,1.62-1.05,2.02-.91.57-2.1.65-3.89.65-.08-.88-.48-2.45-.91-3.3,1,.06,2.05.03,2.39.03.31,0,.43-.11.43-.51v-5.86h-2.76c-.26,3.44-.8,7.02-1.99,9.67-.6-.48-1.93-1.28-2.7-1.56,1.73-3.89,1.88-9.64,1.88-13.82v-5.2c0-1.76-.08-3.89-.23-5.17,0-.2.14-.2.23-.2,1.08.11,2.84.2,4.32.2h4.35v8.39c2.05-1.59,2.3-3.58,2.3-5.29v-3.21h4.8c1.59,0,3.58-.08,4.78-.2.14,0,.14.11.14.2-.08.77-.14,2.1-.14,3.16v3.18c0,.77.06.88.34.88h.63c.34,0,.43-.4.51-3.07.6.51,1.88,1.02,2.7,1.22-.26,3.7-1,4.69-2.84,4.69h-1.59c-2.22,0-2.87-.82-2.87-3.67v-3.24h-3.24v.14c0,2.59-.6,5.74-3.41,7.7-.4-.51-1.42-1.39-2.1-1.93v13.05ZM186.68,58.31v-3.33h-2.56v.82l-.03,2.5h2.59ZM184.12,51.83h2.56v-3.24h-2.56v3.24ZM197.43,63.4c1.02-1.14,1.88-2.39,2.53-3.81h-5.23c.34.68.74,1.34,1.19,1.99.46.62.97,1.22,1.51,1.82Z"/>
    <path class="cls-2" d="M223.47,61.95v-1.17h-3.84c-1.31,0-2.87.06-3.81.17-.17,0-.17-.11-.17-.17.23-.97.17-2.56.17-3.87v-3.87c-.51.48-1.05.97-1.62,1.42-.54-.74-1.65-1.82-2.36-2.3,3.1-2.27,5.37-5.29,6.65-7.79,1.71.37,3.61,1.05,3.47,1.31-.2.31-.37,0-.74.62-.26.4-.51.82-.8,1.22h3.98c.48-1.02.94-2.19,1.22-3.1,1.88.26,4.01.88,3.87,1.14-.2.34-.48,0-.85.68-.26.46-.51.88-.77,1.28h4.18c1.39,0,2.79-.06,4.18-.17.11.17.11,2.81,0,3.01-1.08-.11-2.9-.2-4.38-.2h-4.41v1.17h3.7c1.25,0,2.47-.06,3.7-.17.11.17.11,2.39,0,2.56-.91-.11-2.45-.17-3.7-.17h-3.7v1.19h3.72c1.28,0,2.5-.06,3.72-.17.11.17.11,2.42,0,2.59-.91-.11-2.44-.17-3.72-.17h-3.72v1.22h4.8c1.62,0,3.21-.08,4.8-.2.11.2.11,2.76,0,2.99-1.28-.14-3.41-.23-5.12-.23h-5.15v1.17h8.24c.94,0,1.85-.06,2.76-.11.11.11.11,2.81,0,2.98-1.02-.11-2.73-.17-4.12-.17h-4.15c2.5,1.48,5.88,2.76,8.93,3.44-.68.65-1.62,1.93-2.08,2.73-3.27-.94-6.82-2.64-9.58-4.69v2.5c0,.85.06,1.88.11,2.5-.11.17-3.44.17-3.55,0,.06-.6.11-1.59.11-2.45v-2.44c-2.79,2.05-6.37,3.78-9.64,4.72-.48-.82-1.45-2.1-2.13-2.81,3.16-.68,6.65-1.96,9.24-3.5h-4.18c-1.42,0-2.79.06-4.15.17-.11-.17-.11-2.87,0-2.98.65.06,1.76.11,2.7.11h8.16ZM218.95,50.18v1.17h5.32v-1.17h-5.32ZM218.95,53.56v1.19h5.32v-1.19h-5.32ZM218.95,57v1.22h5.32v-1.22h-5.32Z"/>
    <path class="cls-2" d="M246.15,51.83c0-2.16-.11-4.83-.29-6.42,0-.26.17-.26.29-.26,1.45.17,3.92.26,5.88.26h11.8c1.96,0,4.43-.09,5.88-.26.34,0,.34.17.34.26-.23,2.13-.34,5.69-.34,8.53v8.64c0,2.84.11,6.4.34,8.53-.34.17-3.53.17-3.55,0,0-.14.03-.4.03-.65v-.68h-17.34v.71c0,.23.03.51.03.68-.03.17-3.07.17-3.35,0,.17-1.59.29-4.26.29-6.42v-12.91ZM266.53,47.96h-17.34v19.22h17.34v-19.22ZM259.14,51.29v.8h2.84c.94,0,2.13-.06,2.81-.11.14,0,.14.06.14.11-.09.71-.14,1.93-.14,2.93v2.93h-1.39c.88.71,1.79,1.56,2.27,2.22l-1.48,1.11h.85c.31,0,.57-.03.82-.06.11.06.11,1.9,0,1.99-.43-.06-1.19-.08-1.79-.08h-1.79v1.79c0,1.11-.23,1.48-1,1.71-.77.26-1.88.26-3.44.26-.14-.6-.43-1.25-.65-1.73.77.03,1.68.03,1.96.03s.37-.09.37-.37v-1.68h-4.95c.74.71,1.48,1.65,1.85,2.3l-2.22,1.14c-.34-.71-1.19-1.82-1.91-2.59l1.76-.85h-2.19c-.74,0-1.45.06-2.16.11-.11-.11-.11-1.96,0-2.08.6.06,1.59.11,2.45.11h7.36v-.43c0-.17-.03-.31-.03-.51.94-.06,3.13,0,3.13.4-.17.06-.34.11-.34.26v.28h1.51l-.85-.94c-4.58.14-9.27.28-12.68.34l-.06-1.82h6.2v-.91h-5.54v-2.93c0-1-.06-2.22-.14-2.93,0-.11.08-.11.14-.11.68.06,1.82.11,2.76.11h2.79v-.8h-3.16c-1.08,0-2.1.06-3.13.14-.11-.14-.11-2.02,0-2.16.77.08,2.05.14,3.13.14h3.16v-.51c0-.17-.03-.4-.03-.62.94-.06,3.1,0,3.1.4-.17.09-.34.17-.34.37v.37h3.21c1.08,0,2.13-.06,3.18-.14.11.14.11,2.02,0,2.1-.4-.06-1.02-.09-1.59-.09h-4.8ZM256.41,54.33v-.82h-2.98v.82h2.98ZM256.41,56.52v-.85h-2.98v.85h2.98ZM262.13,54.33v-.82h-2.98v.82h2.98ZM262.13,56.52v-.85h-2.98v.85h2.98ZM261.36,58.82l-.28-.23.97-.65h-2.9v.91h1.11l1.11-.03Z"/>
  </g>
  <g>
    <g>
      <path class="cls-2" d="M226.24,9.09c.68,0,1.29-.4,1.55-1.03l1.05-2.46h-21.5c-.34,0-.54-.39-.34-.67.24-.33.46-.64.68-.94.08-.11.2-.17.34-.17h15.76c.62,0,1.13-.5,1.13-1.13v-1.23c0-.62-.5-1.13-1.13-1.13h-27.37c-.62,0-1.13.5-1.13,1.13v1.23c0,.62.5,1.13,1.13,1.13h5.91c.34,0,.54.38.34.66-.22.31-.44.62-.66.94-.08.11-.21.18-.34.18h-9.18c-.62,0-1.13.5-1.13,1.13v1.23c0,.62.5,1.13,1.13,1.13h6.89c-1.77,2.33-3.77,4.59-6.43,6.66-.53.41-.24,1.26.43,1.26h2.91c.44,0,.86-.15,1.19-.44.44-.39.92-.87,1.42-1.4.22-.23.61-.08.61.24v.68c0,1.51,1.23,2.74,2.74,2.74h15.45c1.51,0,2.74-1.23,2.74-2.74v-1.07c0-.29.33-.46.56-.28l2.54,1.91c.31.24.7.36,1.09.36h2.15c.67,0,.96-.85.43-1.26l-8.62-6.66h7.65ZM216.95,15.57c0,.15-.12.27-.27.27h-13.42c-.15,0-.27-.12-.27-.27v-1.77c0-.15.12-.27.27-.27h13.42c.15,0,.27.12.27.27v1.77ZM214.58,10.54h-11.21c-.24,0-.37-.27-.23-.46.19-.24.37-.48.55-.72.13-.17.34-.27.56-.27h9.01c.15,0,.3.05.42.14l1.06.8c.22.17.1.52-.17.52Z"/>
      <path class="cls-2" d="M217.82,24.61h-15.45c-1.51,0-2.74,1.23-2.74,2.74v2.8c0,1.51,1.23,2.74,2.74,2.74h15.45c1.51,0,2.74-1.23,2.74-2.74v-2.8c0-1.51-1.23-2.74-2.74-2.74ZM217.09,29.64c0,.15-.12.27-.27.27h-13.42c-.15,0-.27-.12-.27-.27v-1.77c0-.15.12-.27.27-.27h13.42c.15,0,.27.12.27.27v1.77Z"/>
    </g>
    <rect class="cls-2" x="173.87" y="16.95" width="5.57" height="4.8" rx="2.4" ry="2.4"/>
    <g>
      <rect class="cls-2" x="134.97" y="6.04" width="18.59" height="3.48" rx="1.13" ry="1.13"/>
      <path class="cls-2" d="M141.45,22.83c.39,0,.71.32.71.71v1.26c0,.39-.32.71-.71.71h-11.52c-.62,0-1.13.5-1.13,1.13v1.23c0,.62.5,1.13,1.13,1.13h11.52c.39,0,.71.32.71.71v1.24c0,.39-.32.71-.71.71h-15.45c-.62,0-1.13.5-1.13,1.13v1.23c0,.62.5,1.13,1.13,1.13h34.31c.68,0,1.29-.4,1.55-1.03l1.05-2.46h-16.57c-.39,0-.71-.32-.71-.71v-1.24c0-.39.32-.71.71-.71h11.66c.62,0,1.13-.5,1.13-1.13v-1.23c0-.62-.5-1.13-1.13-1.13h-11.66c-.39,0-.71-.32-.71-.71v-1.26c0-.39.32-.71.71-.71h12.88c.62,0,1.13-.5,1.13-1.13v-1.23c0-.62-.5-1.13-1.13-1.13h-12.88c-.39,0-.71-.32-.71-.71v-2.43c0-.39.32-.71.71-.71h8.78c2.03,0,3.68-1.65,3.68-3.68V3.73c0-2.03-1.65-3.68-3.68-3.68h-22.21c-2.03,0-3.68,1.65-3.68,3.68v8.1c0,2.03,1.65,3.68,3.68,3.68h8.53c.39,0,.71.32.71.71v2.43c0,.39-.32.71-.71.71h-9.61c-.39,0-.7-.32-.7-.7v-.93c0-.62-.5-1.13-1.13-1.13h-1.23c-.62,0-1.13.5-1.13,1.13v2.44c0,1.48,1.2,2.67,2.67,2.67h11.13ZM133.42,12.02c-.39,0-.7-.32-.7-.7v-7.08c0-.39.32-.7.7-.7h21.19c.39,0,.7.32.7.7v7.08c0,.39-.32.7-.7.7h-21.19Z"/>
    </g>
    <g>
      <path class="cls-2" d="M111.22,14.27c-.16,0-.29-.14-.28-.3.05-.73-.66-1.43-1.38-1.69l-3.93-1.43,3.93-1.43c.88-.32,1.61-1.29,1.29-2.17l-.03-.07c-.07-.18.07-.38.27-.38h6.05c.62,0,1.13-.5,1.13-1.13v-1.23c0-.62-.5-1.13-1.13-1.13h-13.89c-.39,0-.7-.32-.7-.7v-1.49c0-.62-.5-1.13-1.13-1.13h-1.19c-.62,0-1.13.5-1.13,1.13v1.49c0,.39-.32.7-.7.7h-13.89c-.62,0-1.13.5-1.13,1.13v1.23c0,.62.5,1.13,1.13,1.13h6.05c.2,0,.33.19.27.38l-.03.07c-.32.88.41,1.85,1.29,2.17l3.93,1.43-3.93,1.43c-.72.26-1.43.96-1.38,1.69.01.16-.12.3-.28.3h-3.35c-2.01,0-3.68,1.58-3.77,3.59-.19,4.2-.85,11.25-3.03,16.51-.19.46.15.97.65.97h2.35c.3,0,.57-.19.67-.47,2.09-5.97,2.88-12.57,3.01-16.27.01-.38.32-.68.71-.68,2.5,0,11.11,0,13.58,0,.26,0,.39.32.2.5-1.98,2.01-4.74,3-7.61,2.67-.24-.03-.48-.06-.71-.11-.47-.09-.94.17-1.09.63l-.51,1.5c-.09.26-.06.54.07.78.14.24.37.41.64.47.4.08.8.15,1.2.2.49.06.99.08,1.48.08s.98-.03,1.47-.08c3.46-.4,6.64-2.25,8.72-5.06.16-.21.22-.49.17-.75-.05-.26-.2-.48-.42-.63l-.3-.19h11.08c.69,0,1.31-.42,1.57-1.05l1.06-2.6h-7.05ZM94.78,6.8h12.08l-6.04,2.48-6.04-2.48ZM100.82,12.42l4.31,1.85h-8.62l4.31-1.85Z"/>
      <path class="cls-2" d="M116.72,22.7l-1.32-.85c-.44-.28-1.01-.16-1.3.27-4.68,6.81-12.74,10.65-21.01,10.02-1.46-.11-2.92-.36-4.33-.74-.51-.14-1.02.14-1.17.64l-.46,1.51c-.07.25-.05.52.08.74.12.23.33.39.58.45,1.64.45,3.34.74,5.04.87.68.05,1.36.08,2.04.08,1.07,0,2.14-.06,3.19-.19,7.68-.92,14.58-5.09,18.94-11.46.14-.21.2-.47.15-.72s-.2-.48-.42-.62Z"/>
      <path class="cls-2" d="M89.75,29.44c1.17.33,2.38.54,3.58.65.57.05,1.15.07,1.72.07.79,0,1.58-.05,2.35-.14,5.58-.67,10.62-3.69,13.84-8.29.15-.21.2-.46.15-.71-.05-.25-.2-.48-.42-.62l-1.32-.86c-.43-.28-1-.16-1.3.26-3.32,4.7-8.96,7.31-14.72,6.82-.97-.08-1.93-.26-2.87-.51-.5-.14-1.02.14-1.17.63l-.48,1.5h0c-.08.25-.05.52.07.75.12.23.32.39.57.46Z"/>
    </g>
    <path class="cls-2" d="M222.41,19.97h-24.62c-2.24,0-4.05,1.81-4.05,4.05v10.49c0,.39.32.7.7.7h2.07c.39,0,.7-.32.7-.7v-10.35c0-.39.32-.7.7-.7h24.34c.39,0,.7.32.7.7v6.68c0,.49-.4.9-.9.9h0c-.62,0-1.13.5-1.13,1.13v1.19c0,.62.5,1.13,1.13,1.13h.64c2.07,0,3.74-1.68,3.74-3.74v-7.41c0-2.24-1.81-4.05-4.05-4.05Z"/>
    <path class="cls-2" d="M104.86,18.12s-.14-.14.06-.19-.42-.55-.42-.55l-.7.38.33.5.74-.13Z"/>
    <g>
      <path class="cls-2" d="M261.3,23.83h-15.45c-1.51,0-2.74,1.23-2.74,2.74v3.08c0,1.51,1.23,2.74,2.74,2.74h15.45c1.51,0,2.74-1.23,2.74-2.74v-3.08c0-1.51-1.23-2.74-2.74-2.74ZM260.56,29.14c0,.15-.12.27-.27.27h-13.42c-.15,0-.27-.12-.27-.27v-2.05c0-.15.12-.27.27-.27h13.42c.15,0,.27.12.27.27v2.05Z"/>
      <path class="cls-2" d="M255.94,2.83c-.39,0-.7-.32-.7-.7v-.99C255.23.5,254.73,0,254.1,0h-1.19c-.62,0-1.13.5-1.13,1.13v.99c0,.39-.32.7-.7.7h-14.92c-.62,0-1.13.5-1.13,1.13v1.23c0,.62.5,1.13,1.13,1.13h6.93c.18,0,.35.1.44.25l2.12,3.62c.16.28-.04.63-.36.63h-4.4c-2.03,0-3.68,1.65-3.68,3.68v19.99c0,.39.32.7.7.7h2.07c.39,0,.7-.32.7-.7V14.99c0-.39.32-.7.7-.7h5.24c.3,0,.5.32.37.59l-3.21,6.54c-.23.47.11,1.01.63,1.01h1.71c.67,0,1.29-.38,1.59-.99l3.4-6.92c.07-.14.22-.24.38-.24h3.46c.23,0,.42.19.42.42v3.6c0,2.28,1.85,4.13,4.13,4.13h4.47c.62,0,1.13-.5,1.13-1.13v-1.23c0-.62-.51-1.13-1.13-1.13h-4.41c-.39,0-.7-.32-.7-.7v-3.54c0-.23.19-.42.42-.42h6.46c.39,0,.7.32.7.7v16.13c0,.35-.29.6-.64.61-.62,0-1.11.51-1.11,1.13v1.19c0,.62.5,1.13,1.13,1.13h.48c2,0,3.63-1.62,3.63-3.63V14.48c0-2.03-1.65-3.68-3.68-3.68h-4.52c-.32,0-.52-.35-.36-.63l2.12-3.62c.09-.16.26-.25.44-.25h5.57c.68,0,1.29-.4,1.55-1.03l1.05-2.46h-16.17ZM259.05,7.24l-1.68,2.87c-.25.43-.72.7-1.22.7h-5.3c-.5,0-.96-.27-1.22-.7l-1.68-2.87c-.24-.41.06-.93.53-.93h10.03c.48,0,.77.52.53.93Z"/>
    </g>
  </g>
  <g>
    <path class="cls-2" d="M311.18,54.03c0-2,.03-4.23.08-5.56h-.08c-.55,2.39-1.72,6.28-2.84,9.94h-2.15c-.85-3.2-2.06-7.64-2.58-9.98h-.08c.1,1.37.15,3.78.15,5.79v4.19h-2.31v-11.7h3.76c.91,3.06,1.93,6.89,2.29,8.63h.02c.29-1.54,1.57-5.64,2.55-8.63h3.63v11.7h-2.44v-4.39Z"/>
    <path class="cls-2" d="M324.77,56.15c0,.84.07,2.06.12,2.27h-2.32c-.07-.17-.12-.64-.12-.86-.32.49-.92,1.06-2.47,1.06-2.12,0-3.01-1.39-3.01-2.75,0-2,1.61-2.92,4.18-2.92h1.25v-.54c0-.62-.22-1.24-1.35-1.24-1.03,0-1.25.44-1.36,1.07h-2.31c.13-1.56,1.1-2.82,3.77-2.81,2.35.01,3.63.93,3.63,3.02v3.69ZM322.4,54.42h-.99c-1.46,0-2.01.45-2.01,1.29,0,.64.39,1.17,1.26,1.17,1.54,0,1.74-1.07,1.74-2.23v-.23Z"/>
    <path class="cls-2" d="M328.67,52.02c0-.87,0-1.65-.02-2.38h2.39c.03.2.06,1.07.06,1.54.39-1,1.32-1.74,2.82-1.75v2.32c-1.76-.04-2.82.43-2.82,2.84v3.83h-2.43v-6.4Z"/>
    <path class="cls-2" d="M347.61,54.81c-.47,2.18-2.12,3.77-5.05,3.77-3.71,0-5.46-2.63-5.46-5.95s1.81-6.08,5.58-6.08c3.12,0,4.62,1.83,4.91,3.78h-2.53c-.24-.9-.87-1.8-2.46-1.8-2.09,0-2.89,1.88-2.89,4,0,1.98.7,4.06,2.96,4.06,1.65,0,2.17-1.11,2.39-1.79h2.54Z"/>
    <path class="cls-2" d="M359.24,54.01c0,2.66-1.59,4.61-4.37,4.61s-4.31-1.94-4.31-4.56,1.64-4.62,4.43-4.62c2.58,0,4.26,1.82,4.26,4.58ZM353.03,54.03c0,1.69.73,2.69,1.9,2.69s1.85-1,1.85-2.68c0-1.84-.67-2.71-1.89-2.71-1.13,0-1.87.83-1.87,2.69Z"/>
    <path class="cls-2" d="M362.61,51.9c0-.76,0-1.51-.02-2.26h2.33c.03.21.08.7.09,1.05.45-.65,1.15-1.25,2.44-1.25s1.96.65,2.27,1.34c.51-.72,1.27-1.34,2.71-1.34,1.53,0,2.78.94,2.78,3.22v5.76h-2.37v-5.47c0-.79-.29-1.57-1.28-1.57s-1.44.67-1.44,2.01v5.02h-2.38v-5.37c0-.91-.22-1.65-1.26-1.65s-1.46.61-1.46,2.11v4.91h-2.4v-6.52Z"/>
    <path class="cls-2" d="M385.2,46.72h2.53v4.56h4.71v-4.56h2.53v11.7h-2.53v-5.06h-4.71v5.06h-2.53v-11.7Z"/>
    <path class="cls-2" d="M407.14,54.01c0,2.66-1.59,4.61-4.37,4.61s-4.31-1.94-4.31-4.56,1.64-4.62,4.43-4.62c2.58,0,4.26,1.82,4.26,4.58ZM400.92,54.03c0,1.69.73,2.69,1.9,2.69s1.85-1,1.85-2.68c0-1.84-.67-2.71-1.89-2.71-1.13,0-1.87.83-1.87,2.69Z"/>
    <path class="cls-2" d="M410.51,58.42v-12.39h2.43v12.39h-2.43Z"/>
    <path class="cls-2" d="M424.88,46.03v9.97c0,.8,0,1.61.02,2.41h-2.34c-.05-.26-.1-.72-.11-.92-.42.69-1.18,1.12-2.49,1.12-2.22,0-3.63-1.78-3.63-4.52s1.5-4.67,3.99-4.67c1.26,0,1.94.45,2.14.84v-4.24h2.43ZM418.82,54.03c0,1.71.67,2.64,1.86,2.64,1.67,0,1.86-1.39,1.86-2.66,0-1.5-.21-2.64-1.8-2.64-1.28,0-1.92,1-1.92,2.66Z"/>
    <path class="cls-2" d="M428.74,46.03h2.43v2.17h-2.43v-2.17ZM428.74,49.64h2.43v8.78h-2.43v-8.78Z"/>
    <path class="cls-2" d="M435.07,51.85c0-.75,0-1.56-.02-2.21h2.35c.05.23.08.84.09,1.12.3-.55,1.01-1.32,2.55-1.32,1.76,0,2.91,1.19,2.91,3.4v5.59h-2.43v-5.32c0-.99-.33-1.7-1.4-1.7s-1.62.57-1.62,2.12v4.89h-2.43v-6.57Z"/>
    <path class="cls-2" d="M454.8,57.35c0,2.82-1.04,4.6-4.37,4.6s-3.84-1.79-3.92-2.78h2.48c.17.6.62,1.01,1.55,1.01,1.58,0,1.88-.96,1.88-2.68v-.42c-.46.76-1.19,1.23-2.48,1.23-2.31,0-3.63-1.9-3.63-4.26,0-2.75,1.64-4.62,3.84-4.62,1.51,0,2.13.71,2.27,1.12.02-.24.08-.77.1-.92h2.31c-.01.78-.02,1.68-.02,2.52v5.19ZM448.81,53.95c0,1.51.75,2.4,1.83,2.4,1.46,0,1.85-1,1.85-2.48s-.26-2.49-1.8-2.49c-1.05,0-1.88.81-1.88,2.57Z"/>
    <path class="cls-2" d="M460.37,55.78c.18.7.76,1.09,1.66,1.09s1.22-.32,1.22-.85c0-.56-.38-.79-1.64-1.09-2.86-.71-3.33-1.59-3.33-2.83s.91-2.66,3.56-2.66,3.57,1.46,3.64,2.64h-2.31c-.08-.32-.29-.94-1.44-.94-.8,0-1.06.36-1.06.75,0,.44.27.65,1.7.98,2.93.68,3.34,1.69,3.34,2.97,0,1.45-1.11,2.78-3.78,2.78s-3.77-1.29-3.96-2.84h2.39Z"/>
    <path class="cls-2" d="M485.32,58.42h-1.85c-.1-.36-.16-.76-.19-1.15-.65.87-1.79,1.35-3.42,1.35-3.4,0-5.29-2.57-5.29-5.9,0-3.52,2.05-6.17,5.73-6.17,3.01,0,4.78,1.7,5.07,3.69h-2.53c-.24-.78-.86-1.71-2.57-1.71-2.4,0-3.09,2.01-3.09,4.07s.78,4,3.1,4c2.16,0,2.56-1.5,2.56-2.55v-.11h-2.57v-2.07h5.05v6.54Z"/>
    <path class="cls-2" d="M489.21,52.02c0-.87,0-1.65-.02-2.38h2.39c.03.2.06,1.07.06,1.54.39-1,1.32-1.74,2.82-1.75v2.32c-1.76-.04-2.82.43-2.82,2.84v3.83h-2.43v-6.4Z"/>
    <path class="cls-2" d="M505.61,54.01c0,2.66-1.59,4.61-4.37,4.61s-4.31-1.94-4.31-4.56,1.64-4.62,4.43-4.62c2.58,0,4.26,1.82,4.26,4.58ZM499.4,54.03c0,1.69.73,2.69,1.9,2.69s1.85-1,1.85-2.68c0-1.84-.67-2.71-1.89-2.71-1.13,0-1.87.83-1.87,2.69Z"/>
    <path class="cls-2" d="M516.72,55.87c0,.85,0,1.77.02,2.55h-2.38c-.03-.24-.05-.71-.07-1.01-.52.88-1.3,1.22-2.42,1.22-1.79,0-2.93-1.09-2.93-3.26v-5.72h2.43v5.23c0,.97.3,1.77,1.35,1.77,1.11,0,1.57-.59,1.57-2.33v-4.67h2.43v6.23Z"/>
    <path class="cls-2" d="M523.03,57.64v4.14h-2.42v-10.03c0-.71,0-1.41-.02-2.12h2.36c.03.23.08.77.08,1.09.38-.64,1.16-1.3,2.55-1.3,1.97,0,3.5,1.65,3.5,4.37,0,3.1-1.7,4.82-3.83,4.82-1.24,0-1.89-.47-2.22-.98ZM526.61,53.9c0-1.61-.65-2.52-1.81-2.52-1.38,0-1.87.89-1.87,2.66,0,1.68.45,2.65,1.77,2.65s1.91-1,1.91-2.79Z"/>
  </g>
  <g>
    <path class="cls-2" d="M372.48,34.22c-5.32,0-8.9-3.55-8.9-8.84v-7.91c0-.38.31-.69.69-.69h1.55c.38,0,.69.31.69.69v7.91c0,1.38.43,5.9,5.96,5.9s5.96-4.52,5.96-5.9v-7.91c0-.38.31-.69.69-.69h1.55c.38,0,.69.31.69.69v7.91c0,5.29-3.58,8.84-8.9,8.84Z"/>
    <path class="cls-2" d="M357.47,25.37c0-4.87-4.65-8.84-10.37-8.84s-10.37,3.97-10.37,8.84,4.65,8.84,10.37,8.84h7.87c.63,0,1.21-.36,1.49-.92l1.01-2.02h-2.01c-.24,0-.37-.29-.2-.46,1.38-1.5,2.21-3.39,2.21-5.44ZM339.67,25.37c0-3.25,3.33-5.9,7.43-5.9s7.43,2.65,7.43,5.9-3.33,5.9-7.43,5.9-7.43-2.65-7.43-5.9Z"/>
    <path class="cls-2" d="M418.66,16.77h-6.26c-.81,0-1.47.66-1.47,1.47v14.51c0,.81.66,1.47,1.47,1.47h6.26c5.72,0,10.37-3.91,10.37-8.72s-4.65-8.72-10.37-8.72ZM418.66,31.31h-4.52c-.15,0-.28-.12-.28-.28v-11.09c0-.15.12-.28.28-.28h4.52c4.1,0,7.43,2.61,7.43,5.82s-3.33,5.82-7.43,5.82Z"/>
    <rect class="cls-2" x="500.9" y="17" width="2.94" height="17.03" rx=".69" ry=".69"/>
    <path class="cls-2" d="M494.74,17h-16.33c-.38,0-.69.31-.69.69v1.55c0,.38.31.69.69.69h6.07c.15,0,.28.12.28.28v13.11c0,.38.31.69.69.69h1.55c.38,0,.69-.31.69-.69v-13.11c0-.15.12-.28.28-.28h4.26c.63,0,1.21-.36,1.49-.92l1.01-2.02Z"/>
    <path class="cls-2" d="M311.04,24.55c-.38,0-.69.31-.69.69v1.55c0,.38.31.69.69.69h5.76c.22,0,.35.24.24.43-1.2,1.98-3.75,3.35-6.69,3.35-4.1,0-7.43-2.65-7.43-5.9s3.33-5.9,7.43-5.9c2.02,0,3.85.65,5.19,1.69.12.1.27.15.42.15h2.22c.59,0,.92-.69.54-1.14-1.89-2.2-4.93-3.64-8.37-3.64-5.72,0-10.37,3.97-10.37,8.84s4.65,8.84,10.37,8.84c2.69,0,5.14-.88,6.99-2.32.18-.14.44,0,.44.22v1.4c0,.38.31.69.69.69h1.55c.38,0,.69-.31.69-.69v-6.19c0-1.53-1.24-2.78-2.78-2.78h-6.9Z"/>
    <path class="cls-2" d="M453.03,22.24c0-3.17-2.93-5.47-6.95-5.47h-9.48c-.81,0-1.47.66-1.47,1.47v15.28c0,.38.31.69.69.69h1.55c.38,0,.69-.31.69-.69v-5.53c0-.15.12-.28.28-.28h6.89c.1,0,.19.05.24.14l3.47,6.01c.12.21.35.35.6.35h1.79c.53,0,.87-.58.6-1.04l-3.17-5.49c-.09-.15,0-.35.16-.4,2.49-.81,4.11-2.68,4.11-5.04ZM438.07,19.96c0-.15.12-.28.28-.28h7.73c1.93,0,4.01.8,4.01,2.56s-2.08,2.56-4.01,2.56h-7.73c-.15,0-.28-.12-.28-.28v-4.56Z"/>
    <path class="cls-2" d="M465.81,19.71h.59c.11,0,.21.06.25.16l6.34,13.94c.11.25.36.41.63.41h1.71c.5,0,.84-.52.63-.98l-7.27-16.06c-.11-.25-.36-.41-.63-.41h-3.83c-.27,0-.51.16-.63.4l-7.53,16.06c-.22.46.12.99.63.99h1.71c.27,0,.52-.16.63-.4l6.51-13.95c.05-.1.14-.16.25-.16Z"/>
    <path class="cls-2" d="M395.88,19.71h.59c.11,0,.21.06.25.16l6.34,13.94c.11.25.36.41.63.41h1.71c.5,0,.84-.52.63-.98l-7.27-16.06c-.11-.25-.36-.41-.63-.41h-3.83c-.27,0-.51.16-.63.4l-7.53,16.06c-.22.46.12.99.63.99h1.71c.27,0,.52-.16.63-.4l6.51-13.95c.05-.1.14-.16.25-.16Z"/>
    <path class="cls-2" d="M520.37,31.51c-4.1,0-7.43-2.65-7.43-5.9s3.33-5.9,7.43-5.9c2.24,0,4.25.79,5.61,2.04.13.12.3.19.47.19h2.06c.57,0,.9-.66.56-1.11-1.85-2.44-5.06-4.06-8.71-4.06-5.72,0-10.37,3.97-10.37,8.84s4.65,8.84,10.37,8.84c4.07,0,7.59-2.02,9.29-4.94h-2.78c-.59,0-1.15.2-1.64.54-1.31.91-3.01,1.46-4.88,1.46Z"/>
    <rect class="cls-2" x="326.85" y="23.87" width="3.76" height="3.24" rx=".89" ry=".89"/>
  </g>
  <path class="cls-2" d="M60.49,46.32c1.15-5.59-.51-10.74-6.9-10.68-6.97.07-10.64,8.17-17.39,9.97-6.75,1.8-8.92.22-13.34-3.68-4.42-3.89-5.55-4.57-8.55-4.34-3,.22-2.25,2.54-1.95,3.29.3.75,2.4.07,3.45.22,1.05.15,1.72.6,2.63,1.95.9,1.35,4.27,4.88,6.97,6.53,2.7,1.65,5.85,2.4,10.79,1.57,4.95-.82,9.3-6.97,10.34-8.17,1.05-1.2,7.65-5.25,6.82,1.12-.82,6.37-8.25,12.22-8.25,12.22-14.69,9.37-24.89,3.67-31.48-2.03-6.6-5.69-8.25-16.57-4.49-26.39,3.75-9.82,15.96-15.59,26.39-13.26,10.42,2.32,13.8,9.29,16.27,13.04,2.47,3.75,4.95,2.17,4.95,2.17,4.19-1.99-.15-8.92-.15-8.92-.55-.87-1.12-1.67-1.7-2.43-5.64-7.01-14.29-11.5-24-11.5C13.89,7.01.1,20.8.1,37.8s13.79,30.8,30.8,30.8c14.05,0,25.9-9.42,29.59-22.29Z"/>
  <line class="cls-1" x1="285.44" y1="16.77" x2="285.44" y2="59.1"/>
</svg>